# xmcd
#
# Track frame offsets:
#	150
#	19662
#	34292
#	58670
#	79194
#	94645
#	114759
#	131848
#	149564
#	165581
#	185484
#	202925
#	218064
#	235490
#	254838
#	269896
#	294522
#	312330
#
# Disc length: 4415 seconds
#
# Revision: 0
# Processed by: cddbd v1.5.1PL2 Copyright (c) Steve Scherf et al.
# Submitted via: dBpowerAMP V4.0
#
DISCID=14113d12
DTITLE=Elsa - Connexion-Live
DYEAR=2006
DGENRE=AlternRock
TTITLE0=(Intro) A quoi ça sert
TTITLE1=On tombe
TTITLE2=Sous ma robe
TTITLE3=Le soir
TTITLE4=Jacques est maniaque
TTITLE5=Chaque jour
TTITLE6=Quelque chose dans mon coeur
TTITLE7=Canada Coast
TTITLE8=Pris dans le système
TTITLE9=Jamais nous
TTITLE10=Lune noire
TTITLE11=L'or et la poussière
TTITLE12=Mon amour
TTITLE13=T'en va pas
TTITLE14=Connexions
TTITLE15=Un désir
TTITLE16=Eternité
TTITLE17=Pour une vue du paradis
EXTD=
EXTT0=
EXTT1=
EXTT2=
EXTT3=
EXTT4=
EXTT5=
EXTT6=
EXTT7=
EXTT8=
EXTT9=
EXTT10=
EXTT11=
EXTT12=
EXTT13=
EXTT14=
EXTT15=
EXTT16=
EXTT17=
PLAYORDER=
